# xmcd CD database file
#
# Track frame offsets:
#	150
#	13507
#	27052
#	41460
#	55547
#	70995
#	83442
#	98865
#	111345
#	124172
#
# Disc length: 2222 seconds
#
# Revision: 0
# Processed by: cddbd v1.4PL0 Copyright (c) Steve Scherf et al.
# Submitted via: CDex 1.50Beta7
#
DISCID=7208ac0a
DTITLE=Bunk Johnson - Bunk Johnson and His Superior Jazz Band
DYEAR=1942
DGENRE=Blues
TTITLE0=Panama
TTITLE1=Down by the Riverside
TTITLE2=Storyville Blues
TTITLE3=Ballin' the Jack
TTITLE4=Make Me a Pallet on the Floor
TTITLE5=Weary Blues
TTITLE6=Moose March
TTITLE7=Bunk's Blues
TTITLE8=Yes, Lord, I'm Crippled
TTITLE9=Bunk Johnson Talking Records
EXTD=YEAR: 1942
EXTT0=
EXTT1=
EXTT2=
EXTT3=
EXTT4=
EXTT5=
EXTT6=
EXTT7=
EXTT8=
EXTT9=
PLAYORDER=
